{"title":"Why We Ride (2013) (HD 1080p).m4v","uid":11222745,"size":3483587030,"categoryP":"video","categoryS":"hd___movies","magnet":"?xt=urn:btih:b1472c56698dae32f0cbb976d92124332e47719c&amp;dn=Why+We+Ride+%282013%29+%28HD+1080p%29.m4v&amp;tr=udp%3A%2F%2Ftracker.openbittorrent.com%3A80&amp;tr=udp%3A%2F%2Fopen.demonii.com%3A1337&amp;tr=udp%3A%2F%2Ftracker.coppersurfer.tk%3A6969&amp;tr=udp%3A%2F%2Fexodus.desync.com%3A6969","seeders":1,"leechers":0,"uploader":"arctictpb","files":1,"time":1413405782,"description":"General\nComplete name : Why We Ride (2013) (HD 1080p).m4v\nFormat : MPEG-4\nCodec ID : M4V\nFile size : 3.24 GiB\nDuration : 1h 28mn\nOverall bit rate mode : Variable\nOverall bit rate : 5 228 Kbps\nMovie name : Why We Ride\nPerformer : Bryan H. Carroll\nGenre : Sports\nContentType : Short Film\nDescription : An inspiring celebration of the motorcycling community, Why We Ride is a documentary film that\nRecorded date : 2013-11-01\nEncoded date : UTC 2014-02-19 15:47:17\nTagged date : UTC 2014-02-19 15:50:00\nCopyright : Â© 2013 Kretz Media Holdings, LLC\nCover : Yes\nRating : None\nLongDescription : An inspiring celebration of the motorcycling community, Why We Ride is a documentary film that shares the passion of motorcycle riding and shows the camaraderie of the friends and families who ride together. As told by the many racers, riders, pioneers, and parents in the sport, the story weaves its way through generations of motorcyclists who live each day to the fullest on their two-wheeled machines. The refreshing message about the joys of motorcycling, coupled with state of the art photography, capture the imagination and set the soul in motion. WINNER-Best Documentary - Motorcycle Film Festival 2013. WINNER - AMA Hazel Kolb Brighter Image Award 2014. WINNER - Family Choice Awards 2014.\nAppleStoreCountry : United States\nAppleStoreCatalogID : 810312988\n\nVideo #1\nID : 1\nFormat : AVC\nFormat/Info : Advanced Video Codec\nFormat profile : &lt;a class=&quot;__cf_email__&quot; href=&quot;/cdn-cgi/l/email-protection&quot; data-cfemail=&quot;632b0a040b232f574d53&quot;&gt;[email&amp;#160;protected]&lt;/a&gt;&lt;script cf-hash='f9e31' type=&quot;text/javascript&quot;&gt;\n/* &lt;![CDATA[ */!function(){try{var t=&quot;currentScript&quot;in document?document.currentScript:function(){for(var t=document.getElementsByTagName(&quot;script&quot;),e=t.length;e--;)if(t[e].getAttribute(&quot;cf-hash&quot;))return t[e]}();if(t&amp;&amp;t.previousSibling){var e,r,n,i,c=t.previousSibling,a=c.getAttribute(&quot;data-cfemail&quot;);if(a){for(e=&quot;&quot;,r=parseInt(a.substr(0,2),16),n=2;a.length-n;n+=2)i=parseInt(a.substr(n,2),16)^r,e+=String.fromCharCode(i);e=document.createTextNode(e),c.parentNode.replaceChild(e,c)}}}catch(u){}}();/* ]]&gt; */&lt;/script&gt;\nFormat settings, CABAC : Yes\nFormat settings, ReFrames : 4 frames\nCodec ID : avc1\nCodec ID/Info : Advanced Video Coding\nDuration : 1h 28mn\nBit rate : 4 691 Kbps\nWidth : 1 920 pixels\nHeight : 1 038 pixels\nDisplay aspect ratio : 1.85:1\nFrame rate mode : Variable\nFrame rate : 23.976 fps\nMinimum frame rate : 23.810 fps\nMaximum frame rate : 24.390 fps\nColor space : YUV\nChroma subsampling : 4:2:0\nBit depth : 8 bits\nScan type : Progressive\nBits/(Pixel*Frame) : 0.098\nStream size : 2.91 GiB (90%)\nLanguage : English\nEncoded date : UTC 2014-02-19 15:47:17\nTagged date : UTC 2014-02-19 15:49:43\nColor primaries : BT.709\nTransfer characteristics : BT.709\nMatrix coefficients : BT.709\n\nVideo #2\nID : 6\nFormat : JPEG\nCodec ID : jpeg\nDuration : 1h 28mn\nBit rate mode : Variable\nBit rate : 1 100 bps\nWidth : 640 pixels\nHeight : 346 pixels\nDisplay aspect ratio : 1.85:1\nFrame rate mode : Variable\nFrame rate : 0.003 fps\nMinimum frame rate : 0.002 fps\nMaximum frame rate : 0.008 fps\nColor space : YUV\nChroma subsampling : 4:2:0\nBit depth : 8 bits\nCompression mode : Lossy\nBits/(Pixel*Frame) : 1.656\nStream size : 806 KiB (0%)\nLanguage : English\nEncoded date : UTC 2014-02-19 15:49:58\nTagged date : UTC 2014-02-19 15:49:59\n\nAudio #1\nID : 2\nFormat : AAC\nFormat/Info : Advanced Audio Codec\nFormat profile : LC\nCodec ID : 40\nDuration : 1h 28mn\nBit rate mode : Variable\nBit rate : 144 Kbps\nMaximum bit rate : 166 Kbps\nChannel(s) : 2 channels\nChannel positions : Front: L R\nSampling rate : 48.0 KHz\nCompression mode : Lossy\nStream size : 90.7 MiB (3%)\nLanguage : English\nEncoded date : UTC 2014-02-19 15:47:17\nTagged date : UTC 2014-02-19 15:49:43\n\nAudio #2\nID : 3\nFormat : AC-3\nFormat/Info : Audio Coding 3\nMode extension : CM (complete main)\nFormat settings, Endianness : Big\nCodec ID : ac-3\nDuration : 1h 28mn\nBit rate mode : Constant\nBit rate : 384 Kbps\nChannel(s) : 6 channels\nChannel positions : Front: L C R, Side: L R, LFE\nSampling rate : 48.0 KHz\nBit depth : 16 bits\nCompression mode : Lossy\nStream size : 244 MiB (7%)\nLanguage : English\nEncoded date : UTC 2014-02-19 15:47:17\nTagged date : UTC 2014-02-19 15:49:43\n\nText\nID : 4\nFormat : Timed Text\nMuxing mode : sbtl\nCodec ID : tx3g\nDuration : 1h 27mn\nBit rate mode : Variable\nBit rate : 141 bps\nStream size : 90.4 KiB (0%)\nLanguage : English\nEncoded date : UTC 2014-02-19 15:47:17\nTagged date : UTC 2014-02-19 15:49:43","torrent":{"xt":"urn:btih:b1472c56698dae32f0cbb976d92124332e47719c","amp;dn":"Why+We+Ride+%282013%29+%28HD+1080p%29.m4v","amp;tr":["udp%3A%2F%2Ftracker.openbittorrent.com%3A80","udp%3A%2F%2Fopen.demonii.com%3A1337","udp%3A%2F%2Ftracker.coppersurfer.tk%3A6969","udp%3A%2F%2Fexodus.desync.com%3A6969"],"infoHash":"b1472c56698dae32f0cbb976d92124332e47719c","infoHashBuffer":{"type":"Buffer","data":[177,71,44,86,105,141,174,50,240,203,185,118,217,33,36,51,46,71,113,156]},"announce":[],"urlList":[]}}